<svg xmlns="http://www.w3.org/2000/svg" width="35" height="30"><path fill-rule="evenodd" fill="#92B549" d="M34.73 1.58c-.85 1.36-1.3 3.03-1.75 4.67-1.3 5.71-2.6 9.6-12.27 8.62-1.55 1.98-2.31 4.55-2.49 7.92.15 1.87.3 4.05.1 6.58-.07.9-1.43.8-1.37-.1.33-4.36-.38-7.59-1.41-9.98-10.43 1.07-11.82-3.71-13.14-8.6-.45-1.2-.9-3.3-1.75-4.39-.3-.74.01-1.3.52-1.34 6.8-.43 15 1.53 15.5 9.43.08 1.07 0 2.25-.26 3.52.26.51.5 1.07.73 1.67.47-2.33 1.14-4.21 2.28-5.75.43-.36-2.12-5.58 1.86-9.16 3.14-3.74 8.4-4.44 12.93-4.16.54.04 1.04.65.52 1.07Zm-19.84 16.4a15.29 15.29 0 0 0-3.54-4.28c-.8-.4.1-1.73.9-1.03.7.62 1.9 1.66 3.04 3.47.6-7.8-6.44-10.03-12.94-9.86.62 1.28 1 2.68 1.37 4.07 1.15 4.22 2.27 8.38 11.17 7.63Zm5.23-6.05c1.84-2.82 3.54-3.79 5.06-4.94.71-.54 1.54.55 1.42 1.79-2.18.5-4.04 1.58-5.86 4.77 8.67.65 9.78-2.66 10.92-7.65.66-1.39.75-2.79 1.65-4.07-7-.17-14.03 2.42-13.2 10.1Z"/></svg>