<svg xmlns="http://www.w3.org/2000/svg" width="29" height="27"><path fill-rule="evenodd" fill="#92B549" d="M8.25.1a7.37 7.37 0 0 0-7.31 7.38c0 2.16.5 3.05 1.35 4.25l.03.05 11.93 14.12c.15.45 1.12.36 1.1 0l12.55-14.17c.04-1.2.54-2.1.54-4.25a7.36 7.36 0 0 0-7.31-7.37c-2.79 0-5.2 1.58-6.44 4.79-1.23-3.2-3.36-4.8-6.43-4.8Zm0 1.75c3.1 0 5.57 2.52 5.57 5.63a.86.86 0 0 0 1.73 0 5.76 5.76 0 0 1 5.57-5.63 5.6 5.6 0 0 1 5.59 5.63c0 1.2-.37 2.31-1 3.22l-11.02 13.28c-3.09-4.44-7.36-8.88-11.05-13.32-.37-.9-.97-2-.97-3.18a5.6 5.6 0 0 1 5.58-5.63Z"/></svg>