<svg xmlns="http://www.w3.org/2000/svg" width="24" height="25"><path fill-rule="evenodd" fill="#84AB31" d="M23.47 3.57c-2.7 2.48-6.56 5.9-11.14 14.68a1.3 1.3 0 0 1-2.3 0l-4.33-8.18a.9.9 0 0 1 .3-1.18l.57-.4a.86.86 0 0 1 1.08.1l3.56 3.69s4.58-6.4 11.6-9.79c.63-.3 1.18.63.66 1.08Zm-11.94-.55a9.48 9.48 0 0 0-9.41 9.48 9.48 9.48 0 0 0 9.41 9.49 9.48 9.48 0 0 0 8.47-13.63c.53-.6 1.02-1.15 1.52-1.63a11.62 11.62 0 0 1-9.99 17.4 11.6 11.6 0 0 1-11.53-11.63 11.6 11.6 0 0 1 11.5-11.62c2.85 0 5.44 1.06 7.46 2.76-.63.4-1.2.86-1.77 1.28a9.27 9.27 0 0 0-5.66-1.9Z"/></svg>