<?xml version="1.0" standalone="no"?>
<!DOCTYPE svg PUBLIC "-//W3C//DTD SVG 20010904//EN"
 "http://www.w3.org/TR/2001/REC-SVG-20010904/DTD/svg10.dtd">
<svg version="1.0" xmlns="http://www.w3.org/2000/svg"
 width="187.000000pt" height="25.000000pt" viewBox="0 0 187.000000 25.000000"
 preserveAspectRatio="xMidYMid meet">

<g transform="translate(0.000000,25.000000) scale(0.100000,-0.100000)"
fill="#000000" stroke="none">
<path d="M1360 235 c-25 -8 -59 -28 -75 -45 -29 -31 -29 -32 -11 -46 11 -8 26
-14 33 -14 8 0 29 -7 49 -15 30 -12 34 -17 25 -33 -6 -11 -35 -30 -66 -42 -30
-12 -55 -27 -55 -32 0 -15 46 -1 125 38 l70 35 8 -31 c11 -45 28 -37 21 9 -5
31 -2 48 16 75 12 20 28 37 36 37 8 1 19 2 26 3 6 0 13 7 16 14 3 9 -3 11 -22
6 -21 -5 -26 -3 -26 12 0 15 -3 14 -26 -7 -17 -16 -23 -18 -19 -7 9 22 -28 58
-57 57 -13 0 -43 -7 -68 -14z m105 -40 c0 -15 -10 -22 -42 -29 -24 -5 -43 -15
-43 -22 0 -9 -11 -11 -37 -8 -63 9 -67 12 -52 31 41 49 174 70 174 28z m15
-43 c0 -5 -12 -20 -27 -34 l-28 -26 -18 23 c-17 24 -17 24 15 34 43 12 58 13
58 3z"/>
<path d="M446 202 c-10 -12 -43 -26 -72 -33 -30 -7 -54 -18 -54 -24 0 -9 12
-8 45 3 25 8 49 12 52 8 4 -4 -10 -23 -30 -44 -24 -23 -35 -30 -31 -18 6 15 4
18 -9 13 -8 -3 -18 -1 -20 6 -5 14 -67 -14 -104 -47 -37 -32 -36 -13 2 59 38
72 36 93 -8 81 -13 -3 -35 -16 -48 -28 -13 -13 -33 -30 -43 -38 -17 -12 -16
-10 3 17 24 32 22 53 -6 53 -9 0 -14 -3 -10 -6 3 -3 -14 -35 -39 -72 -38 -57
-55 -102 -39 -102 3 0 35 32 72 71 37 39 80 77 95 85 l29 15 -31 -55 c-37 -66
-37 -102 0 -100 14 1 29 -5 33 -12 11 -19 24 -18 59 7 23 17 32 19 38 9 10
-17 48 4 60 33 8 21 9 21 9 -5 1 -33 10 -58 22 -58 5 0 6 18 3 39 -5 31 -2 48
16 75 12 20 28 37 36 37 8 1 19 2 26 3 6 0 13 7 16 14 3 9 -3 11 -21 7 -19 -5
-26 -2 -29 10 -3 15 -5 15 -22 -3z m-116 -116 c0 -6 -66 -46 -75 -46 -5 0 2
11 15 25 20 21 60 35 60 21z"/>
<path d="M956 191 c-4 -5 -2 -12 3 -15 5 -4 12 -2 15 3 4 5 2 12 -3 15 -5 4
-12 2 -15 -3z"/>
<path d="M22 170 c-12 -5 -22 -14 -22 -20 0 -16 15 -12 35 10 20 22 20 23 -13
10z"/>
<path d="M634 108 c-16 -13 -35 -29 -42 -38 -11 -13 -13 -11 -8 12 9 42 -11
43 -54 4 -49 -44 -55 -45 -35 -7 18 37 5 48 -30 25 -27 -18 -33 -29 -12 -21
10 4 13 -2 9 -18 -6 -35 15 -39 53 -10 33 24 35 25 35 6 0 -34 18 -33 58 4 22
19 42 35 45 35 3 0 0 -13 -6 -30 -16 -43 3 -60 41 -37 21 12 32 13 40 5 14
-14 52 -4 85 23 41 31 32 43 -10 14 -37 -25 -63 -32 -63 -17 0 4 16 18 35 31
41 28 44 41 11 41 -17 0 -34 -12 -52 -35 -44 -58 -96 -75 -60 -21 15 24 13 56
-4 56 -4 0 -20 -10 -36 -22z m146 -3 c-7 -8 -17 -15 -22 -15 -6 0 -5 7 2 15 7
8 17 15 22 15 6 0 5 -7 -2 -15z"/>
<path d="M1550 112 c-18 -11 -36 -25 -38 -32 -3 -7 0 -10 7 -6 7 5 9 1 5 -9
-8 -19 13 -45 35 -45 9 0 36 18 60 40 52 48 63 50 48 10 -16 -43 3 -60 41 -37
21 12 32 13 40 5 14 -14 52 -4 85 23 41 31 32 43 -10 14 -37 -25 -63 -32 -63
-17 0 4 16 18 35 31 41 28 44 41 11 41 -17 0 -34 -12 -52 -35 -44 -58 -96 -75
-60 -21 15 24 13 56 -4 56 -4 0 -20 -10 -35 -22 l-28 -22 -15 22 c-18 27 -19
27 -62 4z m250 -7 c-7 -8 -17 -15 -22 -15 -6 0 -5 7 2 15 7 8 17 15 22 15 6 0
5 -7 -2 -15z m-203 -20 c5 -16 -22 -55 -39 -55 -12 0 -10 44 4 58 16 16 27 15
35 -3z"/>
<path d="M903 103 c-28 -19 -31 -38 -4 -23 17 9 20 7 18 -16 -3 -37 15 -40 52
-9 29 25 45 23 19 -3 -24 -24 2 -23 35 2 40 31 57 33 57 7 0 -11 5 -23 11 -27
13 -7 61 25 67 47 4 11 1 11 -14 -2 -39 -33 -47 -34 -40 -5 8 33 -14 44 -45
22 -20 -13 -24 -14 -33 0 -10 13 -16 11 -46 -11 -18 -14 -35 -25 -37 -25 -2 0
-2 12 -1 26 4 33 -9 38 -39 17z"/>
</g>
</svg>
