<svg xmlns="http://www.w3.org/2000/svg" width="94" height="68"><path fill-rule="evenodd" fill="#84AB31" d="M93.6 11.25c-.28.26-.66.27-1.34.26h-1.26l.07 24.27c.05 17.61.02 24.76-.12 25.5a8.4 8.4 0 0 1-4.35 5.75c-1.04.51-2.94.95-4.08.95-3.8 0-7.49-2.6-8.57-6.05-.35-1.1-.35-1.55-.35-25.87v-24.55h-1c-.86 0-1.38 0-1.63-.6-.23-.53-.23-1.53-.23-3.52 0-3.08 0-3.27.45-3.58.37-.26 1.17-.3 11.33-.3 10.45 0 11.02.09 11.19.25.18.18.25.75.25 3.78v.58c0 2 0 2.76-.36 3.13Zm-18.46 49.3a7.11 7.11 0 0 0 5.02 5.52c2.7.87 5.56.26 7.48-1.58.93-.89 1.7-2.4 1.88-3.69.06-.47.12-11.82.08-25.19l-.06-24.1h-14.4v10.15l5.82-.08c2.93-.05 6.15-.05 6.46.06.36.13.47.34.46.66 0 .15-.09.59-.72.59-2.9 0-12.02.08-12.02.08v11.83c0 6.45-.05 14.79-.08 18.39a86 86 0 0 0 .08 7.36Zm17.45-55.52h-20.48v4.96h20.28l.1-1.36c.05-.8.1-2 .1-2.65v-.95Zm-11.33 34.85c.35-.19.8-.32 1.03-.32.7 0 1.62.75 1.9 1.54.23.65.22.82-.1 1.47a2.12 2.12 0 0 1-1.84 1.24 2.2 2.2 0 0 1-2.09-2 1.95 1.95 0 0 1 1.1-1.93Zm.47 2.16c.14.21.36.34.46.34.3 0 .5-.2.58-.4a.61.61 0 0 0-.14-.69.61.61 0 0 0-.41-.2h-.05c-.16.02-.31.13-.44.32-.2.32-.2.32 0 .64Zm1.84-4.25c-.7-.68-1-1.73-.73-2.6.24-.84.83-1.55 1.52-1.86a2.58 2.58 0 0 1 2.43.18 2.48 2.48 0 0 1 1.12 2.12c0 .81-.32 1.46-1.06 2.16-.5.47-.73.55-1.64.55-.9 0-1.15-.09-1.64-.55Zm.81-1.4c.24.42.39.51.88.51.42 0 .81-.3 1-.76.2-.47.13-.97-.17-1.26a.9.9 0 0 0-.63-.28h-.04c-.29.01-.58.17-.8.45-.43.5-.5.83-.24 1.33Zm-27.78 26.1a17.36 17.36 0 0 1-16.06 1.16l-1.28-.56-2.64 1.6c-1.78 1.07-2.6 1.5-3.14 1.5a.85.85 0 0 1-.4-.1c-.32-.17-1.61-.93-2.87-1.71-2.2-1.36-2.23-1.34-2.87-1.07-3.2 1.32-4.46 1.6-7.14 1.6-4.6 0-7.94-1.41-11.5-4.88-2.98-2.92-4.77-5.68-6.85-10.54-1.7-4.05-2.06-6.08-1.2-6.77.62-.52 7.29-.18 10.95.32 6.63.9 12.42 4.27 15.11 8.8a16.36 16.36 0 0 1 1.95 7.35v1.57l2.1 1.27c.96.56 1.62.93 1.98 1.12.03-.67.06-2.26.06-4.45v-4.7l-1.54-.98c-8.16-5.21-11.88-17.7-8.66-29.03 1.77-6.22 4.05-10.65 8.74-16.92 2.2-2.87 2.61-2.87 2.78-2.87 1.78 0 6.09 5.96 8.61 11.1 2.81 5.73 3.53 8.7 3.5 14.47-.02 6.24-.78 9.75-3.13 14.44-1.8 3.64-3.52 5.91-6.19 8.1l-1.98 1.64v4.62c0 2.14.05 3.7.1 4.35l1.56-.92 1.68-1.04.14-1.8c.84-9.7 9.25-15.73 21.96-15.73 2.16 0 7.02.29 7.39 1.15.45 1.16-1.83 6.82-3.86 10.2-1.5 2.55-5.26 6.51-7.3 7.71Zm-30.2-4.2c-.43-3.46-1.6-5.86-3.88-8.02-2.98-2.83-6.65-4.47-11.54-5.13-1.45-.19-4-.42-5.7-.52l-2.72-.16.11.5c.1.47.66 2.03 1.21 3.41 3.13 7.77 7.48 12.49 12.93 14.04 2.07.6 6.2.42 7.9-.35.46-.2.75-.34.87-.43l-.03-.02c-.18-.16-2.68-1.74-5.75-3.6-2.68-1.63-5.6-3.46-5.85-3.71-.3-.27-.38-.73-.2-1.16.16-.41.52-.68.92-.68.46 0 5.48 3.07 6.05 3.42a184 184 0 0 0 5.78 3.45c0-.27-.06-.79-.1-1.04Zm8.53-22.85.11 3.87 1.3-1.2c1.8-1.65 2.42-1.7 2.77-1.55.18.08.4.27.4.77 0 .53-1.77 2.32-2.4 2.9l-2.18 2.17.12 8.7.93-.8a22 22 0 0 0 5.2-7.1c2.13-4.39 2.85-7.78 2.85-13.43 0-5.34-.75-8.2-3.65-13.97a43.7 43.7 0 0 0-3.9-6.36 36.3 36.3 0 0 0-2.12-2.6c-.78.53-4.76 6.24-6.61 9.99a49.86 49.86 0 0 0-3.66 10.49c-.45 2.35-.51 7-.13 9.37a28.5 28.5 0 0 0 2.66 7.76c1.07 2.07 4.27 5.7 5.8 6.58l.38.22v-3.5c0-2.23-.08-4.34-.15-4.75-.11-.55-.65-1.1-2.51-2.6-2.56-1.99-2.46-2.28-2.49-2.38-.25-.69.41-1.27 1.12-1.05.4.13 2.32 1.5 2.34 1.51l1.43 1.07v-3.64c0-3.43.1-4.73.66-5.18.3-.24.64-.2.88-.15.7.11.72.47.85 4.86Zm30.35 10.65c-.03-.06-.14-.1-.35-.15a45.1 45.1 0 0 0-8.3-.16c-5.36.75-9.56 2.53-12.15 5.14a14.49 14.49 0 0 0-3.78 7.28c-.08.54-.12 1-.14 1.3.84-.45 3.13-1.78 6-3.51a789.5 789.5 0 0 1 6.56-3.94.7.7 0 0 1 .32-.08c.16 0 .32.05.48.14.35.21.6.62.6 1.01 0 .62-.58 1.1-6.7 4.78l-.94.57c-2.86 1.71-4.94 2.96-4.94 3.33.08.17 1.05.4 1.92.6l.51.11c2.8.66 3.74.66 6.24.03 3.41-.87 5.14-1.86 7.73-4.42a25.85 25.85 0 0 0 5.9-8.84c.72-1.75 1.18-2.92 1.04-3.2Z"/></svg>