<svg xmlns="http://www.w3.org/2000/svg" width="86" height="75"><path fill-rule="evenodd" fill="#84AB31" d="M42.92 59.08c-1.02-1.13-2.13-2.29-3.2-3.41a82.15 82.15 0 0 1-5.85-6.57c-1.52-1.98-1.58-4.48-1.64-7.14l-.01-.4-.04-7.6c0-1.94 0-3.85-.02-5.71h1.67a1 1 0 1 0 0-2h-16.83a1 1 0 1 0 0 2h1.44l-.02 5.84-.03 7.5c.13 4.5-.87 7.25-3.62 9.9-1.34 1.47-3.02 3.25-4.66 5a997.1 997.1 0 0 0-2.98 3.19c-.82.96-1.61 1.78-2.38 2.57-2.55 2.64-4.75 4.93-3.4 8.9.95 2.45 3.38 3.78 6.85 3.78h30.28a46.1 46.1 0 0 1 2.61-.02c3.16.04 5.9.08 7.91-3.24a.75.75 0 0 0 .06-.11c1.82-4.14-.51-6.55-3.47-9.6-.85-.89-1.74-1.8-2.66-2.88Zm-22.53-17.5.03-7.49c0-2 0-3.95.02-5.84h9.73l.02 5.72.03 7.63.01.41c.07 2.86.15 5.81 2.05 8.3.63.82 1.32 1.64 2.03 2.45h-17.98c3.02-2.97 4.2-6.23 4.06-11.18Zm26.86 29.12c-1.4 2.28-3.1 2.27-6.14 2.22-.81 0-1.73-.03-2.67.01h-29.75c-2.03.08-4.62-.3-5.45-2.46-.92-2.67.24-4.03 2.95-6.83a54.9 54.9 0 0 0 2.43-2.63l2.95-3.15 2.94-3.13.13.02h21.47l2.16 2.3c1.08 1.13 2.16 2.26 3.14 3.35.95 1.12 1.9 2.09 2.73 2.95 3 3.1 4.3 4.6 3.1 7.36l.01-.01Zm37.74-55.54a1 1 0 0 0-1 1v10.1h-6.2v-13.72h1.04a1 1 0 1 0 0-2h-11.7a1 1 0 0 0-1 1 1 1 0 0 0 1 1h.86v13.71h-5.2v-13.71h1.05a1 1 0 0 0 1-1 1 1 0 0 0-1-1h-11.7a1 1 0 1 0 0 2h.85v13.71h-5.2v-13.71h1.05a1 1 0 1 0 0-2h-11.7a1 1 0 1 0 0 2h.85v13.71h-.62a1 1 0 1 0 0 2h46.62v3.5h-46.62a1 1 0 1 0 0 2h.62v11.68a4.9 4.9 0 0 0 9.8 0v-11.69h5.2v11.69a4.9 4.9 0 0 0 9.8 0v-11.69h5.2v11.69a4.9 4.9 0 0 0 9.8 0v-11.69h6.21v19.98h-42.22a1 1 0 1 0 0 2h42.22v3.5h-36.72a1 1 0 0 0-1 1 1 1 0 0 0 1 .99h36.72v1.6a1 1 0 0 0 1 1 1 1 0 0 0 1-1l-.02-46.65a1 1 0 0 0-1-1Zm-15-2.62h5.8v13.72h-5.8v-13.72Zm-15.01 0h5.8v13.72h-5.8v-13.72Zm-15 0h5.8v13.72h-5.8v-13.72Zm2.9 35.79a2.9 2.9 0 0 1-2.9-2.9v-7.12h5.8v7.12c0 1.6-1.3 2.9-2.9 2.9Zm2.9-12.01h-5.8v-2.57h5.8v2.57Zm12.1 12a2.9 2.9 0 0 1-2.9-2.9v-4.08h5.8v4.09c0 1.6-1.3 2.9-2.9 2.9Zm2.9-8.97h-5.8v-5.6h5.8v5.6Zm12.1 8.98a2.9 2.9 0 0 1-2.9-2.9v-1.07l.03.01h5.77v1.06c0 1.6-1.3 2.9-2.9 2.9Zm2.9-5.95h-5.8v-8.64h5.8v8.63Zm-54.02-20.45a4 4 0 1 0 0-7.99 4 4 0 0 0 0 8Zm0-5.98a2 2 0 1 1 0 3.98 2 2 0 0 1 0-3.98Zm8-2a3 3 0 1 0 0-5.99 3 3 0 0 0 0 6Zm0-3.99a1 1 0 1 1 0 2 1 1 0 0 1 0-2Zm-8-8.48a1.5 1.5 0 1 1 3 0 1.5 1.5 0 0 1-3 0Z"/></svg>