<svg xmlns="http://www.w3.org/2000/svg" width="70" height="79"><path fill-rule="evenodd" fill="#84AB31" d="M69.57 30.04c-6.25 6-11.39 6.47-17.9 5.2-1.23-.29-.83-2.13.4-1.89 6.57 1.4 11.31.08 16.14-4.68.9-.88 2.24.48 1.36 1.37Zm-5.79-1.26-6.48-6.49a12.63 12.63 0 0 1-4.36 2.95l4.83 4.84c.62.57.15 1.67-.68 1.64a1 1 0 0 1-.68-.28l-5.54-5.55c-1.76.38-3.64.39-5.4.01a53.9 53.9 0 0 0 2.08 7.94c2.16 6.8 4.39 13.84-1.84 20.08a15.92 15.92 0 0 1-11.55 4.74c-1.82 0-3.35-.27-4.33-.51a.96.96 0 0 1 .45-1.87c3.11.75 9.09 1.26 14.07-3.72 5.4-5.41 3.53-11.31 1.37-18.14-.94-2.96-1.9-6-2.27-9.13-8.22-3.07-10.74-14.23-4.64-20.54 11.02-11.31 28.54 2.95 19.72 16.05l6.61 6.62a.96.96 0 0 1-1.36 1.36Zm-4.83-15.35a10.84 10.84 0 0 0-11.64-10.79c-7.61.41-12.46 9.33-8.69 15.94a10.8 10.8 0 0 0 6.03 5.1c6.87 2.44 14.4-2.95 14.3-10.25Zm-6.48 5.7-4.33-4.33-4.34 4.34a.96.96 0 0 1-1.36-1.36l4.34-4.35-4.34-4.34c-.89-.9.47-2.25 1.36-1.36l4.34 4.34 4.34-4.34a.96.96 0 1 1 1.36 1.36l-4.34 4.34 4.34 4.35c.88.9-.47 2.24-1.37 1.36Zm-18.33 34.6-8.37-8.39a.96.96 0 0 1 1.36-1.36l8.38 8.39a.96.96 0 1 1-1.37 1.36Zm2.85-19.62 8.38 8.38c.61.58.14 1.67-.68 1.65-.25 0-.5-.1-.68-.29l-8.38-8.38c-.89-.9.47-2.24 1.36-1.36Zm5.12 17.32c-.25 0-.5-.1-.68-.28l-13.09-13.1a.96.96 0 0 1 1.36-1.36l13.1 13.1c.6.57.13 1.67-.69 1.64Zm-1.51-21.67c1.23.32.77 2.16-.45 1.88-3.12-.75-9.1-1.27-14.07 3.72-11.38 11.18 11.2 29.76-5.46 43.27-.82.03-1.29-1.08-.68-1.65 7.48-7.49 5.15-15.32 2.9-22.9-2.05-6.9-4.17-14.04 1.87-20.09 5.86-5.86 13.06-4.9 15.89-4.23Zm-22.26 24.8c-6.56-1.4-11.3-.08-16.13 4.68a.96.96 0 1 1-1.36-1.36c6.59-6.6 13.02-6.25 17.9-5.2 1.23.28.83 2.12-.4 1.88Zm-5.46 2.32a.96.96 0 0 1 1.36 0l8.38 8.38a.96.96 0 1 1-1.36 1.36l-8.38-8.38a.96.96 0 0 1 0-1.36Zm-6 2.65 13.09 13.1c.88.9-.48 2.25-1.37 1.37l-13.09-13.1a.96.96 0 1 1 1.37-1.37Z"/></svg>