<svg xmlns="http://www.w3.org/2000/svg" width="55" height="67"><path fill-rule="evenodd" fill="#84AB31" d="M27.33 16.63a15.6 15.6 0 0 1 11.08 4.6 15.62 15.62 0 0 1 0 22.14 15.63 15.63 0 0 1-22.16 0 15.62 15.62 0 0 1 0-22.15 15.62 15.62 0 0 1 11.08-4.59Zm3.26 45.57a1.4 1.4 0 0 1 1.4 2.41 76.42 76.42 0 0 1-4 2.16c-.4.2-.88.19-1.25 0-9.29-4.7-15.95-10.02-20.31-16.7-4.38-6.68-6.4-14.68-6.36-24.74l-.07-14.65c0-.78.62-1.4 1.39-1.4 4.9-.03 9.44-.75 13.62-2.17a36.6 36.6 0 0 0 11.4-6.32 1.4 1.4 0 0 1 1.78.01c3.43 2.8 7.24 4.9 11.4 6.31a43.13 43.13 0 0 0 13.69 2.17c.76 0 1.38.62 1.38 1.39l.01 14.65c.02 7.7-1.16 14.18-3.67 19.8-2.52 5.67-6.38 10.42-11.7 14.6a1.4 1.4 0 0 1-1.73-2.2c4.97-3.9 8.55-8.3 10.88-13.53 2.35-5.25 3.45-11.37 3.43-18.67v-13.28a45.3 45.3 0 0 1-13.18-2.28 39.31 39.31 0 0 1-11.4-6.11 39.24 39.24 0 0 1-11.39 6.1 44.96 44.96 0 0 1-13.11 2.29l.06 13.28c-.03 9.5 1.84 17 5.9 23.23 3.98 6.09 10.1 11 18.6 15.4l1.35-.7 1.88-1.05Zm3.64-2.26a1.4 1.4 0 0 1 1.55 2.33l-.15.09a1.4 1.4 0 0 1-1.54-2.33l.14-.1Zm-13.97-27a1.4 1.4 0 1 1 1.98-1.98l3.85 3.85 6.23-7.98a1.4 1.4 0 0 1 2.2 1.71l-7.14 9.14a1.4 1.4 0 0 1-2.16.22l-4.96-4.96Zm16.17-9.74a12.83 12.83 0 0 0-9.1-3.77 12.83 12.83 0 0 0-12.87 12.87 12.83 12.83 0 0 0 12.87 12.87 12.83 12.83 0 0 0 12.87-12.87c0-3.55-1.44-6.77-3.77-9.1Z"/></svg>