<svg xmlns="http://www.w3.org/2000/svg" xmlns:xlink="http://www.w3.org/1999/xlink" width="19px" height="18px" viewBox="-0.5 -0.5 20 19">
		<path fill="none" stroke="rgb(255, 178, 16)"
			d="M18.188,7.639 L13.538,11.372 L15.122,17.147 C15.274,17.702 14.660,18.146 14.186,17.831 L9.227,14.529 L4.267,17.830 C3.793,18.146 3.180,17.700 3.331,17.145 L4.915,11.372 L0.265,7.639 C-0.182,7.280 0.053,6.556 0.623,6.530 L6.562,6.264 L8.649,0.656 C8.850,0.116 9.603,0.116 9.804,0.656 L11.891,6.264 L17.830,6.530 C18.111,6.543 18.312,6.718 18.398,6.986 C18.466,7.230 18.384,7.482 18.188,7.639 L18.188,7.639 Z" />
	</svg>
